<?xml version="1.0" encoding="UTF-8" standalone="no"?>
<svg
   width="104"
   height="102"
   version="1.1"
   id="svg4"
   sodipodi:docname="bg-pattern-quotation.svg"
   xmlns:inkscape="http://www.inkscape.org/namespaces/inkscape"
   xmlns:sodipodi="http://sodipodi.sourceforge.net/DTD/sodipodi-0.dtd"
   xmlns="http://www.w3.org/2000/svg"
   xmlns:svg="http://www.w3.org/2000/svg">
  <defs
     id="defs8" />
  <sodipodi:namedview
     id="namedview6"
     pagecolor="#505050"
     bordercolor="#eeeeee"
     borderopacity="1"
     inkscape:showpageshadow="0"
     inkscape:pageopacity="0"
     inkscape:pagecheckerboard="0"
     inkscape:deskcolor="#505050"
     showgrid="false" />
  <path
     d="M 104,102 V 59.727 H 84.114 c 0,-5.871 0.689,-11.182 2.068,-15.933 1.379,-4.75 3.42,-9.287 6.125,-13.61 C 95.01,25.86 98.909,22.257 104,19.375 V 0 C 94.242,4.27 86.288,9.874 80.136,16.813 73.985,23.752 69.424,31.358 66.455,39.631 63.485,47.904 62,59.941 62,75.74 V 102 Z m -62,0 V 59.727 H 22.114 c 0,-5.871 0.689,-11.182 2.068,-15.933 1.379,-4.75 3.42,-9.287 6.125,-13.61 C 33.01,25.86 36.909,22.257 42,19.375 V 0 C 32.348,4.27 24.42,9.874 18.216,16.813 12.01,23.752 7.424,31.358 4.455,39.631 1.485,47.904 0,59.941 0,75.74 V 102 Z"
     fill="#A775F1"
     fill-rule="nonzero"
     id="path2"
     style="fill:#84cc16;fill-opacity:1" />
</svg>
