<?xml version="1.0" encoding="UTF-8" standalone="no"?>
<!-- Created with Inkscape (http://www.inkscape.org/) -->

<svg
   width="2100mm"
   height="2970mm"
   viewBox="0 0 2100 2970"
   version="1.1"
   id="svg1540"
   xmlns:inkscape="http://www.inkscape.org/namespaces/inkscape"
   xmlns:sodipodi="http://sodipodi.sourceforge.net/DTD/sodipodi-0.dtd"
   xmlns="http://www.w3.org/2000/svg"
   xmlns:svg="http://www.w3.org/2000/svg">
  <sodipodi:namedview
     id="namedview1542"
     pagecolor="#505050"
     bordercolor="#eeeeee"
     borderopacity="1"
     inkscape:showpageshadow="0"
     inkscape:pageopacity="0"
     inkscape:pagecheckerboard="0"
     inkscape:deskcolor="#505050"
     inkscape:document-units="mm"
     showgrid="false" />
  <defs
     id="defs1537" />
  <g
     inkscape:label="Capa 1"
     inkscape:groupmode="layer"
     id="layer1">
    <polygon
       class="cls-1"
       points="181.58,222.14 180.88,225.81 190.29,225.81 189.41,230.41 179.98,230.41 179.22,234.39 190.32,234.39 189.4,238.93 192.77,238.93 196.96,217.38 193.19,217.38 192.26,222.14 "
       id="polygon408"
       transform="matrix(0.85053858,0,0,0.85053858,-4.312706,-49.831927)"
       style="fill:#e6e6e6" />
    <polygon
       class="cls-1"
       points="166.47,217.38 157.16,217.38 164.18,229.29 "
       id="polygon410"
       transform="matrix(0.85053858,0,0,0.85053858,-4.312706,-49.831927)"
       style="fill:#e6e6e6" />
    <polygon
       class="cls-1"
       points="172.44,238.92 176.62,217.38 172.34,217.38 168.15,238.91 "
       id="polygon412"
       transform="matrix(0.85053858,0,0,0.85053858,-4.312706,-49.831927)"
       style="fill:#e6e6e6" />
    <polygon
       class="cls-1"
       points="198.64,238.94 207.78,238.94 200.92,227.21 "
       id="polygon414"
       transform="matrix(0.85053858,0,0,0.85053858,-4.312706,-49.831927)"
       style="fill:#e6e6e6" />
    <polygon
       class="cls-1"
       points="211.2,217.38 201.89,217.38 208.9,229.29 "
       id="polygon416"
       transform="matrix(0.85053858,0,0,0.85053858,-4.312706,-49.831927)"
       style="fill:#e6e6e6" />
    <polygon
       class="cls-1"
       points="124.44,217.38 112.76,217.38 115.79,231.53 "
       id="polygon418"
       transform="matrix(0.85053858,0,0,0.85053858,-4.312706,-49.831927)"
       style="fill:#e6e6e6" />
    <polygon
       class="cls-1"
       points="106.63,217.38 91.2,217.38 86.75,238.85 111.37,238.87 "
       id="polygon420"
       transform="matrix(0.85053858,0,0,0.85053858,-4.312706,-49.831927)"
       style="fill:#e6e6e6" />
    <polygon
       class="cls-1"
       points="136.85,222.14 136.16,225.81 145.56,225.81 144.69,230.41 135.25,230.41 134.49,234.39 145.59,234.39 144.68,238.9 148.05,238.9 152.23,217.38 148.46,217.38 147.53,222.14 "
       id="polygon422"
       transform="matrix(0.85053858,0,0,0.85053858,-4.312706,-49.831927)"
       style="fill:#e6e6e6" />
    <polygon
       class="cls-1"
       points="153.92,238.9 163.03,238.91 156.19,227.21 "
       id="polygon424"
       transform="matrix(0.85053858,0,0,0.85053858,-4.312706,-49.831927)"
       style="fill:#e6e6e6" />
    <polygon
       class="cls-1"
       points="127.72,238.88 131.89,217.38 130.6,217.38 117.5,238.87 "
       id="polygon426"
       transform="matrix(0.85053858,0,0,0.85053858,-4.312706,-49.831927)"
       style="fill:#e6e6e6" />
    <path
       class="cls-1"
       d="m 181.28331,149.08352 a 3.7083481,3.7083481 0 0 1 -0.99513,-2.80676 l 1.36937,-7.45072 a 3.9464992,3.9464992 0 0 1 2.66221,-2.48356 l 3.67433,-1.29283 h -7.65486 l -3.56377,18.34611 h 9.61108 c 0,0 -0.0595,0 -0.0849,-0.0682 z"
       id="path428"
       style="fill:#e6e6e6;stroke-width:0.850537" />
    <path
       class="cls-1"
       d="m 204.64762,135.05814 h -10.57219 c 0.0511,0.0424 0.11058,0.0682 0.15301,0.11058 l 4.89062,4.17613 a 3.8869612,3.8869612 0 0 1 1.12271,3.40218 l -1.16524,6.12387 a 3.7168537,3.7168537 0 0 1 -2.43254,3.28308 l -3.6318,1.29283 h 8.00358 z"
       id="path430"
       style="fill:#e6e6e6;stroke-width:0.850537" />
    <path
       class="cls-2"
       d="m 182.31247,148.20747 4.60143,3.94651 v 0 a 2.8748204,2.8748204 0 0 0 1.64152,0.85053 2.4495511,2.4495511 0 0 0 1.51396,-0.1617 h 0.0595 l 5.67309,-1.95623 a 2.8578096,2.8578096 0 0 0 1.8797,-2.55162 v 0 l 1.06318,-5.57102 a 2.9853904,2.9853904 0 0 0 -0.85053,-2.63668 l -4.51637,-3.86145 a 3.1384874,3.1384874 0 0 0 -1.63303,-0.85053 2.3389811,2.3389811 0 0 0 -1.4289,0.14466 h -0.0595 l -5.40942,1.8967 a 3.0364227,3.0364227 0 0 0 -2.06682,1.84568 l -1.2503,6.80429 a 2.8237881,2.8237881 0 0 0 0.78251,2.10083 z"
       id="path432"
       style="fill:#caff9f;stroke-width:0.850537" />
    <path
       class="cls-2"
       d="m 68.561424,140.5016 a 0.92708705,0.92708705 0 0 1 -0.408259,0.0852 h -0.212487 a 1.1737433,1.1737433 0 0 1 -0.671923,-0.36573 l -1.352364,-1.15675 a 1.2587971,1.2587971 0 0 1 -0.127621,-0.21249 l -2.908826,14.59524 h 5.103231 l 2.721702,-13.85529 a 1.1822486,1.1822486 0 0 1 -0.450756,0.33171 z"
       id="path434"
       style="fill:#caff9f;stroke-width:0.850537" />
    <path
       class="cls-2"
       d="m 69.684135,135.05814 1.292829,1.1057 a 1.1992594,1.1992594 0 0 1 0.357242,1.05469 l -0.323231,1.70106 a 1.1737433,1.1737433 0 0 1 -0.102226,0.27228 h 1.326841 l -2.764232,14.25503 h 5.103232 l 2.764231,-14.27204 h 5.503004 l 0.850527,-4.11663 z"
       id="path436"
       style="fill:#caff9f;stroke-width:0.850537" />
    <path
       class="cls-2"
       d="m 65.431463,135.05814 h -4.967156 l -1.956233,10.05338 -5.953773,-10.05338 h -4.210164 l -1.369367,6.96592 -1.650046,-6.96592 h -10.35956 l -1.973248,9.88326 c -0.620894,3.03645 -1.828657,4.2527 -3.963509,4.2527 -1.930725,0 -2.985392,-0.90157 -2.985392,-2.83228 a 7.2380832,7.2380832 0 0 1 0.153081,-1.4119 l 1.981754,-9.90027 H 16.76364 l -0.799505,3.93799 h 6.225942 l -1.564993,7.94404 c -0.331709,1.61603 -1.207764,2.4155 -2.594142,2.4155 a 3.4446813,3.4446813 0 0 1 -2.96838,-1.85416 l -3.291583,3.13851 c 1.207764,1.80312 3.291583,2.75574 6.17491,2.75574 a 7.5782988,7.5782988 0 0 0 5.16277,-1.59053 8.4118264,8.4118264 0 0 0 5.298855,1.65007 c 0.136075,0 0.246658,0 0.38274,0 v 0 h 5.375405 l 2.083819,-3.56378 h 7.654848 l 0.722958,3.56378 h 5.103231 l 1.981755,-10.07891 5.953762,10.07891 h 4.193169 l 2.798275,-14.24652 h 1.420386 l -0.153017,-0.13598 a 1.1567325,1.1567325 0 0 1 -0.323231,-0.85053 l 0.382766,-2.06682 a 1.2162702,1.2162702 0 0 1 0.850528,-0.79099 l 0.714452,-0.25524 z m -26.962081,10.96344 3.444683,-5.95376 1.207764,5.95376 z"
       id="path438"
       style="fill:#caff9f;stroke-width:0.850537" />
    <path
       class="cls-1"
       d="m 66.196932,138.7495 1.360883,1.16524 v 0 a 0.85053858,0.85053858 0 0 0 0.484799,0.2636 0.72295779,0.72295779 0 0 0 0.442269,-0.0424 v 0 l 1.701088,-0.57838 a 0.85053858,0.85053858 0 0 0 0.552853,-0.75698 v 0 l 0.314713,-1.64152 a 0.85053858,0.85053858 0 0 0 -0.246563,-0.78251 l -1.335327,-1.13971 a 0.92708705,0.92708705 0 0 0 -0.484799,-0.25525 0.68893626,0.68893626 0 0 0 -0.425296,0.0424 v 0 l -1.598991,0.56137 a 0.89306552,0.89306552 0 0 0 -0.612388,0.54433 l -0.365729,2.00728 a 0.85053858,0.85053858 0 0 0 0.212488,0.61239 z"
       id="path440"
       style="fill:#e6e6e6;stroke-width:0.850537" />
    <path
       class="cls-1"
       d="m 169.72452,174.02133 2.68768,-13.39599 h -3.84443 l -1.40339,7.00845 -1.70108,-7.00845 h -3.77639 l -0.71446,1.09719 0.22117,-1.09719 h -16.29633 l -0.38273,1.93071 a 8.5053858,8.5053858 0 0 0 -6.23448,-2.2199 11.13355,11.13355 0 0 0 -5.78367,1.52249 l 0.24656,-1.24182 h -3.84441 l -0.41678,2.09234 a 8.7605473,8.7605473 0 0 0 -6.20042,-2.09234 h -6.91487 l -0.85056,4.25271 -4.17613,-3.56375 a 2.9598743,2.9598743 0 0 0 -1.53949,-0.80803 2.2028949,2.2028949 0 0 0 -1.34384,0.13598 h -0.0511 l -5.00968,1.76059 0.35721,-1.80312 h -3.844419 l -0.85056,4.4398 c -0.97812,-2.76423 -3.69133,-4.4398 -7.705865,-4.4398 h -6.914871 l -2.330481,11.64386 a 3.6147891,3.6147891 0 0 1 -3.402144,1.88821 c -2.049811,0 -3.181041,-0.96963 -3.181041,-2.96839 a 7.6548473,7.6548473 0 0 1 0.144659,-1.3949 l 1.820157,-9.13477 H 60.566243 v 0.13598 a 13.030251,13.030251 0 0 0 -3.334106,-0.42526 11.57583,11.57583 0 0 0 -3.027918,0.38273 v -0.0935 H 41.718313 L 38.418221,177.1341 H 51.1763 v 0 a 13.77022,13.77022 0 0 0 2.832295,0.3232 c 4.601415,0 7.654835,-2.19437 7.654835,-5.61355 0,-5.10323 -8.207684,-3.65732 -8.18217,-6.37054 0,-1.18224 1.301326,-2.02425 3.512724,-2.02425 a 8.0290841,8.0290841 0 0 1 4.482354,1.27579 l 0.467794,-0.94411 h 3.274555 l -2.662168,13.39599 h 3.818921 l 2.687692,-13.39599 h 2.93435 l -1.216257,6.1324 a 9.4154622,9.4154622 0 0 0 -0.187092,1.76911 c 0,3.56377 2.500568,5.78367 6.651207,5.78367 a 10.002334,10.002334 0 0 0 2.883333,-0.40826 v 0.12762 h 8.063106 a 10.291517,10.291517 0 0 0 8.131132,-3.40217 l -0.68893,3.40217 h 3.81892 l 0.850529,-4.19316 3.91251,3.35112 v 0 a 2.7132181,2.7132181 0 0 0 1.54796,0.85053 2.3134649,2.3134649 0 0 0 1.42891,-0.15302 h 0.0595 l 5.19677,-1.79463 -0.39122,1.94771 h 8.07159 a 11.524798,11.524798 0 0 0 5.74115,-1.42038 l -0.28064,1.42038 h 3.84441 l 0.39978,-1.99024 a 8.5053858,8.5053858 0 0 0 6.21741,2.27943 10.648743,10.648743 0 0 0 5.81768,-1.70108 l -0.28063,1.40341 h 3.84445 l 2.67917,-13.39599 h 3.32561 l -2.65368,13.34494 h 6.28551 l 2.14335,-3.53825 h 7.65485 l 0.56134,2.55161 -0.19545,0.98664 h 12.10316 l 0.63788,-3.11296 z M 44.90796,163.65327 h 5.264834 a 5.0096722,5.0096722 0 0 0 -0.510323,2.24542 3.920983,3.920983 0 0 0 0.23814,1.34385 h -5.732628 z m 12.936677,8.72651 c 0,1.19925 -1.318318,1.93071 -3.40214,1.93071 a 9.3559243,9.3559243 0 0 1 -5.451952,-1.70106 l -0.756979,1.4374 h -5.400919 l 0.756979,-3.81893 h 7.654847 l 0.212648,-1.06314 c 2.441045,1.53946 6.387516,1.42039 6.387516,3.25755 z m 30.440785,1.58202 h -3.725343 l 0.255242,-1.2503 a 12.698541,12.698541 0 0 0 0.85056,-2.71322 l 1.241781,-6.27699 h 2.959874 c 3.112955,0 4.694975,1.50545 4.694975,3.96352 a 5.95377,5.95377 0 0 1 -6.276993,6.311 z m 31.971748,0 h -3.72537 l 2.04981,-10.20647 h 3.27459 c 3.11295,0 4.69497,1.50545 4.69497,3.96349 a 5.95377,5.95377 0 0 1 -6.294,6.27699 z m 20.02168,-5.34141 -0.96961,4.95864 a 6.4215661,6.4215661 0 0 1 -2.73874,0.5869 c -3.13847,0 -4.78854,-1.70109 -4.78854,-4.15064 a 6.1153722,6.1153722 0 0 1 6.34504,-6.41307 5.1712744,5.1712744 0 0 1 4.31221,1.83717 l 1.79463,-1.45443 -0.92706,4.63543 z m 13.06428,4.89911 1.96475,-9.7812 h 4.37178 z m 5.65608,-2.82377 3.89546,-6.37054 1.39489,6.37054 z"
       id="path442"
       style="fill:#e6e6e6;stroke-width:0.850537" />
    <path
       class="cls-2"
       d="m 101.08603,171.91199 3.58928,3.18952 v 0 a 2.2794434,2.2794434 0 0 0 1.2843,0.72294 1.9392279,1.9392279 0 0 0 1.19928,-0.10222 h 0.0511 l 4.52486,-1.47144 a 2.2624326,2.2624326 0 0 0 1.53097,-1.99876 v 0 l 0.91858,-4.39727 a 2.3644973,2.3644973 0 0 0 -0.62939,-2.10082 l -3.52122,-3.12148 a 2.4835726,2.4835726 0 0 0 -1.28431,-0.69744 1.8541741,1.8541741 0 0 0 -1.13123,0.0935 h -0.0424 l -4.30371,1.42891 a 2.4070242,2.4070242 0 0 0 -1.7011,1.43742 l -1.08018,5.34137 a 2.2369165,2.2369165 0 0 0 0.59538,1.67557 z"
       id="path444"
       style="fill:#caff9f;stroke-width:0.850537" />
  </g>
</svg>
