<?xml version="1.0" standalone="no"?>
<!DOCTYPE svg PUBLIC "-//W3C//DTD SVG 20010904//EN"
 "http://www.w3.org/TR/2001/REC-SVG-20010904/DTD/svg10.dtd">
<svg version="1.0" xmlns="http://www.w3.org/2000/svg"
 width="2363.000000pt" height="2363.000000pt" viewBox="0 0 2363.000000 2363.000000"
 preserveAspectRatio="xMidYMid meet">
<metadata>
Created by potrace 1.14, written by Peter Selinger 2001-2017
</metadata>
<g transform="translate(0.000000,2363.000000) scale(0.100000,-0.100000)"
fill="#000000" stroke="none">
<path d="M13007 22994 c-1 -1 -60 -5 -132 -9 -71 -3 -146 -8 -165 -10 -19 -2
-60 -7 -90 -10 -59 -7 -282 -45 -290 -50 -3 -2 -21 -6 -40 -9 -19 -3 -69 -14
-110 -26 -41 -11 -84 -22 -94 -25 -29 -7 -148 -45 -171 -55 -11 -4 -36 -14
-55 -20 -34 -12 -53 -21 -165 -70 -45 -21 -220 -84 -440 -160 -44 -16 -249
-87 -455 -160 -206 -73 -424 -149 -485 -170 -60 -21 -189 -66 -285 -100 -360
-127 -516 -182 -560 -196 -25 -8 -54 -19 -65 -24 -11 -5 -94 -34 -185 -65
-159 -55 -221 -77 -367 -129 -249 -89 -530 -188 -543 -191 -8 -2 -67 -22 -130
-45 -63 -23 -133 -48 -155 -55 -22 -7 -98 -34 -170 -60 -71 -25 -148 -52 -170
-59 -43 -15 -140 -49 -900 -316 -60 -21 -175 -62 -255 -90 -80 -29 -172 -61
-205 -72 -33 -11 -98 -33 -145 -50 -47 -17 -92 -33 -100 -35 -30 -11 -298
-105 -390 -138 -52 -18 -192 -67 -310 -108 -118 -41 -233 -82 -255 -91 -22
-10 -42 -17 -45 -18 -29 -4 -312 -126 -458 -198 -806 -396 -1409 -944 -1837
-1669 -73 -125 -184 -342 -235 -461 -18 -41 -38 -88 -46 -105 -42 -95 -74
-190 -88 -265 -8 -47 -18 -98 -21 -115 -3 -16 -8 -46 -10 -65 -3 -19 -7 -42
-10 -50 -2 -8 -6 -28 -9 -45 -12 -74 -17 -99 -20 -104 -2 -3 -7 -28 -10 -56
-4 -27 -13 -81 -21 -120 -8 -38 -17 -85 -20 -102 -3 -18 -7 -48 -10 -65 -3
-18 -8 -42 -12 -53 -3 -11 -7 -31 -8 -45 -2 -14 -11 -65 -20 -115 -9 -49 -19
-101 -21 -115 -3 -14 -11 -59 -19 -100 -8 -41 -17 -90 -20 -107 -11 -71 -16
-97 -19 -102 -2 -3 -7 -28 -10 -56 -4 -27 -11 -68 -16 -90 -5 -22 -11 -56 -15
-75 -3 -19 -12 -69 -20 -110 -8 -41 -17 -88 -20 -105 -6 -38 -12 -69 -31 -175
-9 -47 -18 -96 -20 -110 -3 -14 -7 -32 -9 -40 -2 -8 -7 -37 -11 -65 -3 -27 -8
-53 -10 -56 -1 -3 -8 -32 -13 -65 -6 -32 -17 -95 -25 -139 -8 -44 -17 -96 -20
-115 -4 -19 -9 -46 -11 -60 -12 -57 -15 -76 -20 -105 -5 -27 -32 -170 -41
-220 -2 -11 -6 -33 -10 -48 -3 -16 -7 -38 -8 -50 -2 -12 -6 -35 -9 -52 -4 -16
-9 -43 -12 -60 -5 -28 -8 -46 -20 -105 -2 -14 -7 -41 -10 -60 -3 -19 -8 -46
-10 -60 -3 -14 -7 -36 -10 -50 -3 -14 -7 -36 -10 -50 -2 -14 -7 -38 -10 -55
-3 -16 -7 -39 -9 -50 -7 -34 -45 -238 -50 -270 -22 -120 -57 -314 -61 -335 -3
-14 -8 -38 -10 -55 -3 -16 -14 -77 -25 -135 -11 -58 -22 -116 -24 -130 -3 -14
-9 -50 -15 -80 -6 -30 -13 -68 -16 -85 -3 -16 -7 -43 -11 -60 -9 -51 -62 -338
-109 -595 -25 -135 -47 -256 -50 -270 -3 -14 -8 -36 -10 -50 -2 -14 -18 -99
-35 -190 -17 -91 -33 -180 -35 -198 -3 -18 -12 -65 -20 -105 -11 -58 -53 -286
-79 -431 -3 -16 -10 -52 -15 -80 -6 -28 -13 -64 -16 -81 -7 -39 -86 -476 -125
-685 -17 -91 -32 -172 -35 -180 -2 -8 -7 -35 -10 -60 -4 -25 -13 -75 -20 -111
-16 -76 -24 -130 -30 -214 -6 -71 -6 -491 0 -555 2 -25 6 -76 10 -115 31 -367
115 -744 236 -1060 27 -71 51 -134 53 -140 11 -41 154 -334 219 -450 58 -104
208 -335 259 -400 4 -5 34 -44 65 -85 57 -75 199 -246 238 -286 17 -18 486
-419 1135 -973 113 -96 212 -182 221 -190 8 -9 35 -32 59 -51 24 -19 48 -40
54 -45 6 -6 92 -79 191 -164 99 -84 191 -163 205 -175 29 -26 294 -253 329
-282 13 -10 28 -24 35 -29 6 -6 187 -161 401 -344 215 -183 404 -345 420 -360
27 -23 208 -179 260 -223 11 -9 31 -26 45 -38 14 -12 47 -40 74 -63 27 -23 54
-47 60 -52 6 -6 56 -48 111 -95 55 -47 105 -89 111 -95 6 -5 35 -30 64 -55 97
-82 284 -242 345 -295 52 -45 504 -432 800 -684 55 -47 105 -90 111 -96 6 -5
32 -28 58 -50 27 -22 58 -48 70 -58 11 -11 46 -40 76 -65 30 -26 136 -128 235
-228 337 -339 632 -552 1065 -770 217 -109 606 -263 755 -299 11 -3 88 -23
170 -44 181 -47 414 -90 575 -106 36 -4 76 -9 89 -11 174 -26 659 -21 871 10
55 8 164 25 205 32 220 35 545 136 765 237 52 24 136 54 450 162 74 25 160 55
190 66 30 11 62 22 70 24 8 2 211 72 450 155 239 83 442 153 450 155 8 2 74
25 145 50 72 25 175 61 230 80 55 18 213 73 350 120 138 48 275 95 305 105 30
10 154 53 275 95 121 42 238 82 260 90 22 7 229 78 460 158 669 231 1358 469
1385 477 14 5 142 49 285 98 285 99 771 266 990 342 328 113 374 129 455 163
129 53 212 92 355 164 72 37 140 71 152 77 13 6 23 14 23 19 0 4 5 7 12 7 14
0 186 104 308 188 91 63 290 210 300 223 3 3 34 30 70 59 36 29 137 126 225
214 166 168 172 173 270 296 33 41 62 77 66 80 26 23 231 332 292 440 168 297
361 772 422 1039 2 9 13 53 24 98 11 45 22 92 25 105 2 13 12 57 21 98 9 41
18 89 20 105 3 17 7 39 9 50 2 11 9 56 16 100 6 44 13 90 15 101 2 12 6 48 10
80 11 103 10 96 52 309 13 72 26 141 28 155 2 14 9 50 15 80 6 30 13 66 16 80
2 14 9 48 15 75 5 28 12 66 15 85 3 19 9 51 14 70 5 19 11 51 14 70 3 19 8 46
11 60 6 32 25 127 31 160 2 14 13 72 24 130 11 58 22 116 25 130 3 14 7 38 11
53 3 16 7 38 9 50 2 12 21 117 44 232 22 116 43 224 45 241 3 17 19 101 36
185 17 85 33 168 35 184 3 17 14 75 25 130 11 55 22 111 24 125 3 14 12 61 20
105 8 44 17 92 20 107 3 15 12 63 20 105 9 43 17 89 20 103 2 14 7 36 10 50 3
14 7 39 10 55 2 17 11 66 20 110 9 44 18 91 20 105 2 14 7 36 10 50 3 14 8 36
10 50 7 38 252 1326 281 1475 14 72 28 141 30 155 3 14 10 50 15 80 6 30 15
78 20 105 14 78 19 101 45 235 14 69 27 143 30 165 4 22 8 48 11 57 3 10 7 30
10 45 2 16 7 39 10 53 3 14 8 36 10 50 3 14 18 97 35 185 37 189 32 163 57
300 41 215 52 284 58 360 3 33 7 76 9 95 23 184 23 778 1 955 -2 17 -7 60 -11
97 -3 37 -7 75 -9 85 -2 10 -7 45 -10 78 -4 33 -9 67 -11 75 -2 8 -7 30 -10
48 -11 71 -16 95 -30 165 -9 39 -27 115 -41 167 -14 52 -27 104 -30 115 -13
66 -131 394 -181 505 -24 54 -147 301 -170 340 -66 115 -151 248 -229 360 -33
47 -162 209 -269 338 -38 46 -280 290 -320 322 -33 27 -282 239 -330 281 -16
15 -82 70 -145 124 -63 54 -129 109 -145 124 -17 14 -59 51 -95 81 -79 68 -48
41 -445 380 -181 155 -354 303 -384 328 -29 26 -57 49 -61 52 -4 3 -34 28 -66
56 -33 28 -140 120 -239 205 -99 84 -182 155 -185 158 -3 4 -45 40 -95 81 -49
41 -92 77 -95 80 -3 3 -52 46 -110 95 -58 50 -107 92 -110 95 -3 3 -48 41
-100 85 -84 71 -139 118 -174 150 -6 6 -23 20 -38 31 -15 12 -55 46 -90 76
-35 31 -175 151 -313 268 -137 117 -263 224 -280 239 -16 14 -75 65 -130 111
-55 47 -102 87 -105 90 -3 3 -36 32 -75 65 -96 82 -105 90 -230 196 -60 51
-112 96 -115 99 -3 3 -63 55 -135 115 -71 60 -132 112 -135 115 -3 3 -48 41
-100 85 -52 44 -97 82 -100 85 -5 6 -197 171 -239 205 -13 11 -29 25 -35 30
-6 6 -40 35 -76 65 -36 30 -70 60 -76 65 -6 6 -35 30 -63 54 -29 24 -74 65
-101 90 -135 128 -158 149 -200 181 -24 19 -51 43 -60 52 -27 29 -261 201
-385 283 -255 168 -541 316 -825 428 -137 54 -350 128 -410 143 -8 2 -78 19
-155 39 -77 19 -151 37 -165 40 -66 13 -267 46 -299 50 -20 2 -56 6 -81 9
-103 14 -131 16 -260 22 -141 6 -270 10 -273 8z"/>
</g>
</svg>
