<?xml version="1.0" encoding="UTF-8" standalone="no"?>
<!-- Created with Inkscape (http://www.inkscape.org/) -->

<svg
   width="210mm"
   height="297mm"
   viewBox="0 0 210 297"
   version="1.1"
   id="SVGRoot"
   sodipodi:docname="C:\Users\YEHIIB~1\AppData\Local\Temp\ink_ext_XXXXXX.svgJDMCD2"
   inkscape:export-filename="yehiibhii.svg"
   inkscape:export-xdpi="96"
   inkscape:export-ydpi="96"
   xmlns:inkscape="http://www.inkscape.org/namespaces/inkscape"
   xmlns:sodipodi="http://sodipodi.sourceforge.net/DTD/sodipodi-0.dtd"
   xmlns="http://www.w3.org/2000/svg"
   xmlns:svg="http://www.w3.org/2000/svg">
  <sodipodi:namedview
     id="namedview1148"
     pagecolor="#505050"
     bordercolor="#eeeeee"
     borderopacity="1"
     inkscape:showpageshadow="0"
     inkscape:pageopacity="0"
     inkscape:pagecheckerboard="0"
     inkscape:deskcolor="#505050"
     inkscape:document-units="mm"
     showgrid="false"
     inkscape:zoom="0.25"
     inkscape:cx="139.5"
     inkscape:cy="98.0"
     inkscape:window-width="1920"
     inkscape:window-height="1057"
     inkscape:window-x="-8"
     inkscape:window-y="-8"
     inkscape:window-maximized="0"
     inkscape:current-layer="layer1" />
  <defs
     id="defs1143" />
  <g
     inkscape:label="Capa 1"
     inkscape:groupmode="layer"
     id="layer1">
    <polygon
       class="cls-1"
       points="196.96,217.38 193.19,217.38 192.26,222.14 181.58,222.14 180.88,225.81 190.29,225.81 189.41,230.41 179.98,230.41 179.22,234.39 190.32,234.39 189.4,238.93 192.77,238.93 "
       id="polygon408"
       transform="matrix(0.49532595,0,0,0.49532595,-26.06071,-91.059784)"
       style="fill:#e6e6e6" />
    <polygon
       class="cls-1"
       points="166.47,217.38 157.16,217.38 164.18,229.29 "
       id="polygon410"
       transform="matrix(0.49532595,0,0,0.49532595,-26.06071,-91.059784)"
       style="fill:#e6e6e6" />
    <polygon
       class="cls-1"
       points="176.62,217.38 172.34,217.38 168.15,238.91 172.44,238.92 "
       id="polygon412"
       transform="matrix(0.49532595,0,0,0.49532595,-26.06071,-91.059784)"
       style="fill:#e6e6e6" />
    <polygon
       class="cls-1"
       points="198.64,238.94 207.78,238.94 200.92,227.21 "
       id="polygon414"
       transform="matrix(0.49532595,0,0,0.49532595,-26.06071,-91.059784)"
       style="fill:#e6e6e6" />
    <polygon
       class="cls-1"
       points="211.2,217.38 201.89,217.38 208.9,229.29 "
       id="polygon416"
       transform="matrix(0.49532595,0,0,0.49532595,-26.06071,-91.059784)"
       style="fill:#e6e6e6" />
    <polygon
       class="cls-1"
       points="124.44,217.38 112.76,217.38 115.79,231.53 "
       id="polygon418"
       transform="matrix(0.49532595,0,0,0.49532595,-26.06071,-91.059784)"
       style="fill:#e6e6e6" />
    <polygon
       class="cls-1"
       points="91.2,217.38 86.75,238.85 111.37,238.87 106.63,217.38 "
       id="polygon420"
       transform="matrix(0.49532595,0,0,0.49532595,-26.06071,-91.059784)"
       style="fill:#e6e6e6" />
    <polygon
       class="cls-1"
       points="152.23,217.38 148.46,217.38 147.53,222.14 136.85,222.14 136.16,225.81 145.56,225.81 144.69,230.41 135.25,230.41 134.49,234.39 145.59,234.39 144.68,238.9 148.05,238.9 "
       id="polygon422"
       transform="matrix(0.49532595,0,0,0.49532595,-26.06071,-91.059784)"
       style="fill:#e6e6e6" />
    <polygon
       class="cls-1"
       points="153.92,238.9 163.03,238.91 156.19,227.21 "
       id="polygon424"
       transform="matrix(0.49532595,0,0,0.49532595,-26.06071,-91.059784)"
       style="fill:#e6e6e6" />
    <polygon
       class="cls-1"
       points="131.89,217.38 130.6,217.38 117.5,238.87 127.72,238.88 "
       id="polygon426"
       transform="matrix(0.49532595,0,0,0.49532595,-26.06071,-91.059784)"
       style="fill:#e6e6e6" />
    <path
       class="cls-1"
       d="M 82.024356,24.782086 A 2.1596211,2.1596211 0 0 1 81.44483,23.14752 l 0.797477,-4.339057 a 2.2983125,2.2983125 0 0 1 1.550378,-1.446344 l 2.13981,-0.752902 H 81.47456 l -2.075423,10.684177 h 5.597179 c 0,0 -0.03465,0 -0.04944,-0.03972 z"
       id="path428"
       style="fill:#e6e6e6;stroke-width:0.495325" />
    <path
       class="cls-1"
       d="m 95.630974,16.614161 h -6.156899 c 0.02976,0.02469 0.0644,0.03972 0.08911,0.0644 l 2.848138,2.432042 a 2.2636395,2.2636395 0 0 1 0.65383,1.981319 l -0.678598,3.566343 a 2.1645745,2.1645745 0 0 1 -1.416638,1.911958 l -2.115036,0.752902 h 4.661018 z"
       id="path430"
       style="fill:#e6e6e6;stroke-width:0.495325" />
    <path
       class="cls-2"
       d="m 82.623711,24.271903 2.679723,2.298318 v 0 a 1.6742017,1.6742017 0 0 0 0.955967,0.495321 1.4265387,1.4265387 0 0 0 0.881681,-0.09417 h 0.03465 l 3.303823,-1.139244 a 1.6642952,1.6642952 0 0 0 1.09467,-1.48598 v 0 l 0.619162,-3.244381 a 1.7385941,1.7385941 0 0 0 -0.49532,-1.535515 L 89.06788,17.317469 a 1.8277528,1.8277528 0 0 0 -0.951024,-0.495321 1.3621464,1.3621464 0 0 0 -0.832144,0.08425 h -0.03465 l -3.150276,1.104577 a 1.7683136,1.7683136 0 0 0 -1.203649,1.074863 l -0.728134,3.962597 a 1.6444822,1.6444822 0 0 0 0.455709,1.223455 z"
       id="path432"
       style="fill:#caff9f;stroke-width:0.495325" />
    <path
       class="cls-2"
       d="m 16.378808,19.784255 a 0.53990528,0.53990528 0 0 1 -0.237757,0.04962 H 16.017306 A 0.68354985,0.68354985 0 0 1 15.626,19.620883 L 14.838427,18.94723 a 0.73308241,0.73308241 0 0 1 -0.07432,-0.123747 l -1.694006,8.499792 h 2.971956 l 1.58503,-8.06887 a 0.68850306,0.68850306 0 0 1 -0.262505,0.193178 z"
       id="path434"
       style="fill:#caff9f;stroke-width:0.495325" />
    <path
       class="cls-2"
       d="m 17.032638,16.614161 0.752902,0.643924 a 0.69840959,0.69840959 0 0 1 0.208046,0.614217 l -0.188239,0.990642 a 0.68354985,0.68354985 0 0 1 -0.05953,0.158567 h 0.772709 l -1.609799,8.301665 h 2.971956 l 1.609798,-8.311571 h 3.20477 l 0.495319,-2.397391 z"
       id="path436"
       style="fill:#caff9f;stroke-width:0.495325" />
    <path
       class="cls-2"
       d="m 14.556021,16.614161 h -2.89271 L 10.524065,22.468922 7.0567814,16.614161 H 4.6049191 l -0.7974748,4.056725 -0.960933,-4.056725 h -6.0330701 l -1.1491553,5.755689 c -0.3615885,1.768329 -1.0649503,2.476634 -2.3082185,2.476634 -1.1243913,0 -1.738595,-0.525045 -1.738595,-1.649428 a 4.2152238,4.2152238 0 0 1 0.089149,-0.822244 l 1.1541089,-5.765595 h -6.6472633 l -0.465606,2.293357 h 3.625786 l -0.911401,4.62635 c -0.193177,0.941123 -0.703362,1.406708 -1.510744,1.406708 a 2.0060701,2.0060701 0 0 1 -1.728688,-1.079802 l -1.91691,1.827766 c 0.703362,1.050078 1.91691,1.604853 3.596066,1.604853 a 4.4133542,4.4133542 0 0 0 3.006629,-0.926273 4.8987736,4.8987736 0 0 0 3.0858802,0.960947 c 0.079246,0 0.1436455,0 0.2228953,0 v 0 h 3.1304606 l 1.2135483,-2.075429 h 4.457934 l 0.4210272,2.075429 H 5.4123 l 1.1541096,-5.869628 3.4672774,5.869628 h 2.441965 l 1.629624,-8.296709 h 0.827187 l -0.08911,-0.07919 a 0.67364331,0.67364331 0 0 1 -0.188239,-0.495321 l 0.222911,-1.203648 a 0.70831613,0.70831613 0 0 1 0.495319,-0.460647 l 0.416074,-0.148644 z m -15.7018374,6.38475 2.00607108,-3.467275 0.70336242,3.467275 z"
       id="path438"
       style="fill:#caff9f;stroke-width:0.495325" />
    <path
       class="cls-1"
       d="m 15.001805,18.763889 0.792534,0.678598 v 0 a 0.49532595,0.49532595 0 0 0 0.282331,0.153512 0.42102706,0.42102706 0 0 0 0.257563,-0.02469 v 0 l 0.990658,-0.33683 a 0.49532595,0.49532595 0 0 0 0.321964,-0.440841 v 0 l 0.183279,-0.955967 A 0.49532595,0.49532595 0 0 0 17.686543,17.38196 l -0.777651,-0.66373 a 0.53990528,0.53990528 0 0 0 -0.282331,-0.148649 0.40121403,0.40121403 0 0 0 -0.247678,0.02469 v 0 l -0.931201,0.326924 a 0.52009225,0.52009225 0 0 0 -0.356634,0.317 l -0.212989,1.168975 a 0.49532595,0.49532595 0 0 0 0.123746,0.356636 z"
       id="path440"
       style="fill:#e6e6e6;stroke-width:0.495325" />
    <path
       class="cls-1"
       d="m 75.292893,39.305053 1.565223,-7.801388 H 74.619239 L 73.80195,35.585158 72.811297,31.503665 H 70.61205 l -0.416078,0.638968 0.128802,-0.638968 h -9.490451 l -0.22289,1.124383 A 4.9532595,4.9532595 0 0 0 56.980681,31.33525 6.4838167,6.4838167 0 0 0 53.61246,32.221899 l 0.143589,-0.723195 H 51.51719 l -0.242719,1.21851 a 5.1018572,5.1018572 0 0 0 -3.610923,-1.21851 h -4.026995 l -0.495338,2.476639 -2.432042,-2.075412 a 1.7237343,1.7237343 0 0 0 -0.896549,-0.47057 1.2828942,1.2828942 0 0 0 -0.782609,0.07919 h -0.02976 l -2.917479,1.025311 0.208027,-1.050079 h -2.238859 l -0.495338,2.585595 C 32.98698,32.459581 31.406895,31.483783 29.068961,31.483783 h -4.026995 l -1.357197,6.781005 a 2.1051354,2.1051354 0 0 1 -1.981297,1.099632 c -1.193744,0 -1.852535,-0.564681 -1.852535,-1.728694 a 4.4579336,4.4579336 0 0 1 0.08424,-0.812344 l 1.06,-5.319792 h -9.272508 v 0.07919 A 7.5883935,7.5883935 0 0 0 9.7810006,31.335122 6.7413861,6.7413861 0 0 0 8.0176398,31.558012 V 31.50356 H 0.74625509 l -1.92186599,9.614269 h 7.4298894 v 0 a 8.0193274,8.0193274 0 0 0 1.6494363,0.188221 c 2.6797142,0 4.4579262,-1.277929 4.4579262,-3.269148 0,-2.971955 -4.7798874,-2.129904 -4.7650289,-3.709995 0,-0.688498 0.7578498,-1.178857 2.045696,-1.178857 a 4.6758769,4.6758769 0 0 1 2.6103769,0.742978 l 0.272428,-0.549819 h 1.906994 l -1.55036,7.801388 h 2.224015 l 1.565225,-7.801388 h 1.708869 l -0.708308,3.57131 a 5.4832583,5.4832583 0 0 0 -0.108956,1.030272 c 0,2.075424 1.456249,3.368221 3.873446,3.368221 a 5.8250333,5.8250333 0 0 0 1.679159,-0.237757 v 0.07432 h 4.69569 a 5.9934441,5.9934441 0 0 0 4.735306,-1.981312 l -0.40121,1.981312 h 2.224015 l 0.495321,-2.441959 2.278512,1.951583 v 0 a 1.5800898,1.5800898 0 0 0 0.901487,0.495321 1.3472866,1.3472866 0 0 0 0.83215,-0.08911 h 0.03465 l 3.02643,-1.045134 -0.227834,1.134283 h 4.700631 a 6.7116668,6.7116668 0 0 0 3.343459,-0.827183 l -0.163436,0.827183 h 2.238859 l 0.232819,-1.159051 a 4.9532595,4.9532595 0 0 0 3.620823,1.327466 6.2014809,6.2014809 0 0 0 3.388027,-0.990654 l -0.16343,0.8173 h 2.238877 l 1.560261,-7.801388 h 1.936727 l -1.545417,7.771658 h 3.660476 l 1.248218,-2.060561 h 4.457935 l 0.326906,1.485974 -0.113824,0.574587 h 7.048487 l 0.37148,-1.812886 z M 2.6038016,33.267033 h 3.0660677 a 2.9174698,2.9174698 0 0 0 -0.2971955,1.30766 2.2834527,2.2834527 0 0 0 0.138685,0.782614 H 2.1728631 Z m 7.5338994,5.082035 c 0,0.698404 -0.7677458,1.124383 -1.9812958,1.124383 A 5.4485854,5.4485854 0 0 1 4.981366,38.482809 L 4.5405261,39.319904 H 1.3952069 l 0.4408399,-2.224021 h 4.4579334 l 0.1238393,-0.619138 c 1.421585,0.896532 3.7198815,0.827189 3.7198815,1.897091 z m 17.727721,0.921317 h -2.169519 l 0.148645,-0.728134 a 7.3952164,7.3952164 0 0 0 0.495338,-1.580091 l 0.723173,-3.655514 h 1.723734 c 1.812884,0 2.734201,0.876725 2.734201,2.308225 a 3.4672816,3.4672816 0 0 1 -3.655516,3.67532 z m 18.619304,0 h -2.169534 l 1.193742,-5.943916 h 1.907015 c 1.81288,0 2.734197,0.876726 2.734197,2.308208 a 3.4672816,3.4672816 0 0 1 -3.66542,3.655514 z m 11.659974,-3.110663 -0.564664,2.88775 a 3.7397108,3.7397108 0 0 1 -1.594953,0.341792 c -1.827748,0 -2.788695,-0.99066 -2.788695,-2.417198 a 3.5613935,3.5613935 0 0 1 3.695144,-3.734763 3.0115817,3.0115817 0 0 1 2.511291,1.069908 l 1.045134,-0.847012 -0.539889,2.699523 z m 7.608205,2.853082 1.144206,-5.696252 h 2.545982 z m 3.293917,-1.644472 2.268594,-3.709995 0.812339,3.709995 z"
       id="path442"
       style="fill:#e6e6e6;stroke-width:0.495325" />
    <path
       class="cls-2"
       d="m 35.320079,38.076642 2.090274,1.857473 v 0 a 1.3274735,1.3274735 0 0 0 0.74794,0.421017 1.1293431,1.1293431 0 0 0 0.698421,-0.05953 h 0.02976 l 2.635131,-0.856919 a 1.317567,1.317567 0 0 0 0.891587,-1.164012 v 0 l 0.534952,-2.560827 a 1.3770062,1.3770062 0 0 0 -0.366537,-1.223449 l -2.050643,-1.817848 a 1.4463517,1.4463517 0 0 0 -0.747941,-0.406167 1.0798106,1.0798106 0 0 0 -0.658791,0.05445 h -0.02469 l -2.506345,0.83215 a 1.4017724,1.4017724 0 0 0 -0.99066,0.837107 l -0.629061,3.11064 a 1.3027073,1.3027073 0 0 0 0.34673,0.975797 z"
       id="path444"
       style="fill:#caff9f;stroke-width:0.495325" />
  </g>
</svg>
